<svg xmlns="http://www.w3.org/2000/svg" width="1400" height="900" viewBox="0 0 1400 900">
  <rect x="0" y="0" width="1400" height="900" fill="#FFFFFF" stroke="none" stroke-width="0" rx="0" opacity="1" />
  <text x="70" y="64" font-family="Arial, Helvetica, sans-serif" font-size="34" font-weight="700" fill="#17212B" text-anchor="start" opacity="1">Concurrent verification latency CDF</text>
  <text x="70" y="100" font-family="Arial, Helvetica, sans-serif" font-size="19" font-weight="400" fill="#5F6B76" text-anchor="start" opacity="1">280 RA proofs submitted together to an 8-worker pool at d = 13</text>
  <line x1="135" y1="155" x2="135" y2="765" stroke="#D8DEE4" stroke-width="1" /><text x="135" y="799" font-family="Arial, Helvetica, sans-serif" font-size="17" font-weight="400" fill="#5F6B76" text-anchor="middle" opacity="1">0</text><line x1="357" y1="155" x2="357" y2="765" stroke="#D8DEE4" stroke-width="1" /><text x="357" y="799" font-family="Arial, Helvetica, sans-serif" font-size="17" font-weight="400" fill="#5F6B76" text-anchor="middle" opacity="1">1,000</text><line x1="579" y1="155" x2="579" y2="765" stroke="#D8DEE4" stroke-width="1" /><text x="579" y="799" font-family="Arial, Helvetica, sans-serif" font-size="17" font-weight="400" fill="#5F6B76" text-anchor="middle" opacity="1">2,000</text><line x1="801" y1="155" x2="801" y2="765" stroke="#D8DEE4" stroke-width="1" /><text x="801" y="799" font-family="Arial, Helvetica, sans-serif" font-size="17" font-weight="400" fill="#5F6B76" text-anchor="middle" opacity="1">3,000</text><line x1="1023" y1="155" x2="1023" y2="765" stroke="#D8DEE4" stroke-width="1" /><text x="1023" y="799" font-family="Arial, Helvetica, sans-serif" font-size="17" font-weight="400" fill="#5F6B76" text-anchor="middle" opacity="1">4,000</text><line x1="1245" y1="155" x2="1245" y2="765" stroke="#D8DEE4" stroke-width="1" /><text x="1245" y="799" font-family="Arial, Helvetica, sans-serif" font-size="17" font-weight="400" fill="#5F6B76" text-anchor="middle" opacity="1">5,000</text><line x1="135" y1="765" x2="1245" y2="765" stroke="#D8DEE4" stroke-width="1" /><text x="119" y="771" font-family="Arial, Helvetica, sans-serif" font-size="17" font-weight="400" fill="#5F6B76" text-anchor="end" opacity="1">0%</text><line x1="135" y1="612.5" x2="1245" y2="612.5" stroke="#D8DEE4" stroke-width="1" /><text x="119" y="618.5" font-family="Arial, Helvetica, sans-serif" font-size="17" font-weight="400" fill="#5F6B76" text-anchor="end" opacity="1">25%</text><line x1="135" y1="460" x2="1245" y2="460" stroke="#D8DEE4" stroke-width="1" /><text x="119" y="466" font-family="Arial, Helvetica, sans-serif" font-size="17" font-weight="400" fill="#5F6B76" text-anchor="end" opacity="1">50%</text><line x1="135" y1="307.5" x2="1245" y2="307.5" stroke="#D8DEE4" stroke-width="1" /><text x="119" y="313.5" font-family="Arial, Helvetica, sans-serif" font-size="17" font-weight="400" fill="#5F6B76" text-anchor="end" opacity="1">75%</text><line x1="135" y1="155" x2="1245" y2="155" stroke="#D8DEE4" stroke-width="1" /><text x="119" y="161" font-family="Arial, Helvetica, sans-serif" font-size="17" font-weight="400" fill="#5F6B76" text-anchor="end" opacity="1">100%</text><path d="M173.15,762.82 L173.66,760.64 L174.40,758.46 L174.42,756.29 L174.90,754.11 L176.01,751.93 L176.41,749.75 L178.73,747.57 L203.95,745.39 L204.66,743.21 L205.24,741.04 L205.49,738.86 L207.22,736.68 L209.53,734.50 L209.70,732.32 L210.23,730.14 L238.66,727.96 L239.19,725.79 L241.88,723.61 L242.94,721.43 L243.27,719.25 L244.27,717.07 L245.29,714.89 L248.68,712.71 L269.71,710.54 L272.08,708.36 L274.72,706.18 L275.03,704.00 L275.80,701.82 L278.15,699.64 L281.94,697.46 L282.48,695.29 L295.75,693.11 L297.76,690.93 L300.69,688.75 L302.52,686.57 L305.35,684.39 L307.73,682.21 L311.52,680.04 L313.04,677.86 L326.91,675.68 L327.37,673.50 L329.62,671.32 L330.99,669.14 L334.78,666.96 L335.55,664.79 L339.91,662.61 L343.38,660.43 L354.06,658.25 L355.40,656.07 L356.73,653.89 L357.07,651.71 L363.23,649.54 L363.24,647.36 L368.64,645.18 L375.12,643.00 L383.51,640.82 L385.22,638.64 L386.40,636.46 L386.84,634.29 L393.35,632.11 L395.42,629.93 L397.77,627.75 L403.22,625.57 L412.04,623.39 L412.83,621.21 L414.93,619.04 L415.04,616.86 L425.77,614.68 L427.37,612.50 L427.93,610.32 L435.54,608.14 L442.16,605.96 L442.33,603.79 L444.90,601.61 L448.23,599.43 L457.23,597.25 L459.91,595.07 L460.92,592.89 L465.20,590.71 L471.79,588.54 L472.11,586.36 L473.95,584.18 L477.19,582.00 L488.69,579.82 L490.32,577.64 L492.33,575.46 L496.42,573.29 L503.26,571.11 L503.42,568.93 L504.03,566.75 L510.67,564.57 L519.12,562.39 L521.60,560.21 L523.40,558.04 L526.18,555.86 L535.24,553.68 L535.48,551.50 L536.86,549.32 L544.66,547.14 L550.53,544.96 L552.03,542.79 L561.31,540.61 L563.79,538.43 L564.46,536.25 L565.91,534.07 L566.96,531.89 L579.67,529.71 L581.65,527.54 L581.94,525.36 L590.43,523.18 L591.52,521.00 L592.37,518.82 L593.26,516.64 L596.12,514.46 L606.06,512.29 L608.94,510.11 L609.10,507.93 L615.94,505.75 L616.25,503.57 L618.70,501.39 L618.79,499.21 L622.55,497.04 L630.93,494.86 L633.70,492.68 L634.78,490.50 L641.43,488.32 L642.30,486.14 L645.54,483.96 L646.14,481.79 L647.49,479.61 L657.84,477.43 L662.42,475.25 L666.94,473.07 L673.26,470.89 L675.12,468.71 L677.59,466.54 L679.03,464.36 L679.73,462.18 L692.08,460.00 L694.25,457.82 L700.60,455.64 L704.25,453.46 L704.37,451.29 L704.50,449.11 L708.69,446.93 L709.63,444.75 L719.37,442.57 L723.53,440.39 L729.20,438.21 L730.80,436.04 L732.64,433.86 L733.61,431.68 L736.35,429.50 L737.25,427.32 L744.86,425.14 L749.53,422.96 L754.69,420.79 L756.45,418.61 L756.72,416.43 L757.15,414.25 L759.72,412.07 L761.48,409.89 L773.32,407.71 L775.52,405.54 L780.55,403.36 L781.12,401.18 L782.14,399.00 L785.84,396.82 L786.15,394.64 L788.67,392.46 L798.32,390.29 L801.54,388.11 L805.24,385.93 L805.86,383.75 L808.27,381.57 L810.51,379.39 L810.53,377.21 L815.00,375.04 L821.58,372.86 L825.84,370.68 L830.77,368.50 L830.96,366.32 L832.80,364.14 L836.31,361.96 L837.26,359.79 L840.56,357.61 L846.91,355.43 L853.34,353.25 L855.92,351.07 L857.69,348.89 L858.25,346.71 L861.00,344.54 L862.35,342.36 L865.76,340.18 L874.67,338.00 L880.51,335.82 L883.46,333.64 L887.69,331.46 L887.70,329.29 L889.18,327.11 L889.58,324.93 L894.04,322.75 L902.52,320.57 L906.37,318.39 L908.90,316.21 L912.66,314.04 L913.45,311.86 L915.07,309.68 L917.47,307.50 L921.31,305.32 L929.79,303.14 L933.27,300.96 L933.76,298.79 L937.91,296.61 L938.70,294.43 L939.91,292.25 L942.05,290.07 L944.96,287.89 L952.66,285.71 L960.70,283.54 L961.06,281.36 L964.51,279.18 L966.17,277.00 L967.11,274.82 L969.37,272.64 L981.49,270.46 L984.75,268.29 L992.45,266.11 L993.60,263.93 L993.93,261.75 L994.02,259.57 L995.58,257.39 L996.85,255.21 L1010.53,253.04 L1013.78,250.86 L1020.39,248.68 L1021.21,246.50 L1022.59,244.32 L1024.62,242.14 L1027.35,239.96 L1028.99,237.79 L1040.61,235.61 L1041.33,233.43 L1050.13,231.25 L1051.46,229.07 L1053.41,226.89 L1054.98,224.71 L1055.65,222.54 L1057.86,220.36 L1068.56,218.18 L1068.66,216.00 L1077.34,213.82 L1081.13,211.64 L1082.21,209.46 L1083.10,207.29 L1083.33,205.11 L1086.71,202.93 L1094.14,200.75 L1094.45,198.57 L1102.50,196.39 L1107.57,194.21 L1110.51,192.04 L1110.84,189.86 L1111.95,187.68 L1116.02,185.50 L1124.98,183.32 L1126.32,181.14 L1134.03,178.96 L1138.96,176.79 L1141.75,174.61 L1143.13,172.43 L1144.74,170.25 L1145.07,168.07 L1154.87,165.89 L1155.24,163.71 L1160.65,161.54 L1163.14,159.36 L1166.92,157.18 L1166.93,155.00" fill="none" stroke="#0072B2" stroke-width="5" stroke-linejoin="round" stroke-linecap="round" /><line x1="693.1612244999889" y1="155" x2="693.1612244999889" y2="765" stroke="#009E73" stroke-width="2" stroke-dasharray="8 7" /><text x="685.1612244999889" y="183" font-family="Arial, Helvetica, sans-serif" font-size="17" font-weight="700" fill="#009E73" text-anchor="end" opacity="1">p50 2514 ms</text><line x1="1116.468471299991" y1="155" x2="1116.468471299991" y2="765" stroke="#E69F00" stroke-width="2" stroke-dasharray="8 7" /><text x="1108.468471299991" y="210" font-family="Arial, Helvetica, sans-serif" font-size="17" font-weight="700" fill="#E69F00" text-anchor="end" opacity="1">p95 4421 ms</text><line x1="1161.1754766539984" y1="155" x2="1161.1754766539984" y2="765" stroke="#D55E00" stroke-width="2" stroke-dasharray="8 7" /><text x="1153.1754766539984" y="237" font-family="Arial, Helvetica, sans-serif" font-size="17" font-weight="700" fill="#D55E00" text-anchor="end" opacity="1">p99 4622 ms</text><text x="690" y="850" font-family="Arial, Helvetica, sans-serif" font-size="20" font-weight="600" fill="#17212B" text-anchor="middle" opacity="1">End-to-end latency from simultaneous arrival (ms)</text><text x="45" y="460" font-family="Arial, Helvetica, sans-serif" font-size="20" font-weight="600" fill="#17212B" text-anchor="middle" opacity="1" transform="rotate(-90 45 460)">Cumulative requests</text><text x="950" y="130" font-family="Arial, Helvetica, sans-serif" font-size="18" font-weight="700" fill="#0072B2" text-anchor="start" opacity="1">60.2 verifications/s</text>
  <text x="70" y="872" font-family="Arial, Helvetica, sans-serif" font-size="16" font-weight="400" fill="#5F6B76" text-anchor="start" opacity="1">Latency includes queueing behind the fixed worker pool; every verification returned valid.</text>
</svg>